# xmcd
# 
# Track frame offsets:
#     150
#     24885
#     48627
#     70254
#     90988
#     109291
#     132656
#     148694
#     170241
#     186347
#     206001
#     225645
#     237490
#     269704
# 
# Disc length: 4340
# 
# Revision: 2
# Processed by: cddbd v1.5.2PL0 Copyright (c) Steve Scherf et al.
# Submitted via: fre:ac v1.0.31
# 
DISCID=d910f20e
DTITLE=Neal Black - Sometimes The Truth
DYEAR=2011
DGENRE=Blues
TTITLE0=New York City Blues
TTITLE1=Lie To Be Loved
TTITLE2=Mississippi Doctor
TTITLE3=Holiday Inn In Heaven
TTITLE4=Chicken Shack Cognac
TTITLE5=Yesterday Promises Tomorrow
TTITLE6=Love And Money
TTITLE7=Gringo Bring Me Your Guns
TTITLE8=Buda, Texas Boogie
TTITLE9=Left Her Back In Dallas
TTITLE10=Sometimes The Truth
TTITLE11=Goodbye Baby
TTITLE12=Justified Suspiction
TTITLE13=Sometimes The Truth
EXTD=
EXTT0=
EXTT1=
EXTT2=
EXTT3=
EXTT4=
EXTT5=
EXTT6=
EXTT7=
EXTT8=
EXTT9=
EXTT10=
EXTT11=
EXTT12=
EXTT13=
PLAYORDER=
